<!-- Generated by IcoMoon.io -->
<svg version="1.1" xmlns="http://www.w3.org/2000/svg" width="32" height="32" viewBox="0 0 32 32">
<title>twitter_bird_icon</title>
<path d="M29.823 8.503c-1.022 0.454-2.122 0.761-3.277 0.898 1.179-0.706 2.082-1.823 2.508-3.156-1.102 0.654-2.323 1.129-3.623 1.385-1.040-1.109-2.523-1.802-4.164-1.802-3.15 0-5.704 2.554-5.704 5.705 0 0.446 0.050 0.882 0.148 1.3-4.741-0.238-8.945-2.509-11.759-5.961-0.491 0.842-0.772 1.822-0.772 2.869 0 1.979 1.007 3.725 2.538 4.748-0.935-0.030-1.815-0.287-2.584-0.714-0.001 0.024-0.001 0.048-0.001 0.072 0 2.764 1.967 5.069 4.577 5.594-0.479 0.13-0.983 0.2-1.503 0.2-0.368 0-0.725-0.036-1.074-0.103 0.726 2.266 2.833 3.916 5.329 3.962-1.952 1.53-4.412 2.442-7.085 2.442-0.46 0-0.914-0.027-1.361-0.080 2.525 1.619 5.524 2.563 8.745 2.563 10.494 0 16.231-8.692 16.231-16.231 0-0.247-0.005-0.494-0.016-0.739 1.114-0.803 2.082-1.808 2.846-2.952z"></path>
</svg>
